<?xml version="1.0" encoding="utf-8"?>
<!-- Generator: Adobe Illustrator 18.1.1, SVG Export Plug-In . SVG Version: 6.00 Build 0)  -->
<svg version="1.1" id="Layer_1" xmlns="http://www.w3.org/2000/svg" xmlns:xlink="http://www.w3.org/1999/xlink" x="0px" y="0px"
	 viewBox="0 0 960 960" enable-background="new 0 0 960 960" xml:space="preserve">
<g>
	<path fill="#333333" d="M511.3,479.8c0,1.3-1,2.3-2.3,2.3c-1.3,0-2.3-1-2.3-2.3c0-1.3,1-2.3,2.3-2.3
		C510.2,477.5,511.3,478.6,511.3,479.8"/>
	<path fill="#9C3888" d="M508.1,484.3c-1.4,0-2.5,1.1-2.5,2.5c0,1.4,1.1,2.5,2.5,2.5c1.4,0,2.5-1.1,2.5-2.5
		C510.6,485.4,509.5,484.3,508.1,484.3 M508.1,487.8c-0.6,0-1.1-0.5-1.1-1.1c0-0.6,0.5-1.1,1.1-1.1s1.1,0.5,1.1,1.1
		C509.2,487.3,508.7,487.8,508.1,487.8"/>
	<path fill="#333333" d="M468.8,478.6c-0.1,3.8-0.8,7-3,9.8c-3.5,4.5-9,4.8-12.6,3.2c-2.5-1.1-3.9-3.1-4.3-5.7
		c-0.7-4.6,0-8.8,2.9-12.5c2.9-3.7,8.2-4.9,12.4-3c2.7,1.2,3.9,3.5,4.4,6.2C468.8,477.4,468.8,478.1,468.8,478.6 M464.6,479.3
		c0-0.4,0-1.1-0.1-1.8c-0.3-2.4-1.6-4.1-3.7-4.4c-2.4-0.4-4.4,0.4-5.8,2.4c-2.1,3-2.6,6.3-1.9,9.8c0.4,2.1,1.8,3.4,3.8,3.7
		c2,0.3,3.7-0.3,5.1-1.9C463.8,485,464.4,482.4,464.6,479.3"/>
	<path fill="#333333" d="M482.1,474.4c-2.4-0.4-4.5,0.6-5.8,2.8c-0.2,0.2-0.7,1.1-0.9,1.5l0,0c0.2-1.8,0.4-3.5,0.4-3.9
		c-1,0-1.9,0-2.8,0c-0.4,0-0.6,0.1-0.7,0.6c-0.8,4.4-1.5,8.8-2.3,13.3c-0.2,1.1-0.4,2.3-0.6,3.5c1.3,0,2.4,0,3.6,0
		c0.1,0,0.4-0.3,0.4-0.5c0.4-2.4,0.9-4.9,1.3-7.3l0,0c0.3-1.4,0.4-2.9,1.1-4.2c0.6-1.1,1.5-2,2.7-2.3c2.1-0.6,3.3,0.5,3,2.6
		c-0.2,1.4-0.5,2.9-0.7,4.3c0,0-1.1,6.2-1.3,7.4c1.3,0,2.4,0,3.6,0c0.1,0,0.4-0.3,0.4-0.5c0.4-2.4,1.4-7.9,1.4-7.9
		c0.2-1.6,0.5-3.1,0.7-4.7C485.9,476.5,484.6,474.8,482.1,474.4z"/>
	<path fill="#333333" d="M497.6,490.7c0,0.4-0.1,0.9-0.2,1.3h3.1c0.1-1.1,0.1-2.3,0-3.4l0-0.1c0-0.6-0.1-1.1-0.3-1.6
		c0.8-1.3,1.3-2.9,1.5-4.4c0.1-0.4,0.1-0.9,0.1-1.3l0-0.2c0-0.1,0-0.1,0-0.2l0-0.2l0-0.1l0-0.1c0-0.1,0-0.1,0-0.2l0,0l0-0.1l0-0.1
		c-0.2-1.1-0.7-2.2-1.4-3.1c-0.7-0.9-1.7-1.6-2.8-2c-0.6-0.2-1.3-0.4-2-0.4l-0.2,0c-0.1,0-0.1,0-0.2,0l-0.1,0l0,0h0c0,0-0.1,0,0,0
		l0,0l0,0c-1.5,0-3.1,0.4-4.4,1.1c-0.4,0.2-0.7,0.4-1.1,0.7l-0.6,3.5c1.3-1,2.8-1.9,4.5-2.1c0.5-0.1,1-0.1,1.4-0.1l0.3,0l0.1,0
		c1.1,0.2,2.2,0.8,2.7,1.9c0.2,0.3,0.3,0.6,0.3,1l0,0.1l0,0l0,0l0,0l0,0.2c0,0,0,0.1,0,0.1l0,0.1l0,0.1c0,0,0,0.1,0,0.1l0,0.1
		c0,0.7-0.1,1.4-0.2,2c0,0,0,0,0,0c-0.9-0.9-2.1-1.6-3.4-1.8c-0.4-0.1-0.8-0.1-1.2-0.1l-0.2,0l-0.1,0l-0.3,0
		c-1.9,0.1-3.7,0.8-4.9,2.3c-0.3,0.4-0.6,0.9-0.8,1.3l-0.1,0.2l-0.1,0.2l0,0.1l0,0l0,0l0,0c0,0.1,0,0.1-0.1,0.2l0,0.2l0,0.2
		c-0.3,2,0.3,4.2,2,5.4c0.4,0.3,0.9,0.5,1.4,0.7l0.2,0.1l0.1,0l0.2,0l0.2,0c1,0.2,2,0.2,2.9,0c0.9-0.2,1.8-0.5,2.5-1
		c0.4-0.3,0.9-0.6,1.3-1C497.6,490.4,497.6,490.5,497.6,490.7C497.6,491.1,497.6,490.5,497.6,490.7z M496,487.5
		c-0.8,0.9-1.9,1.8-3.2,1.9c-0.4,0-0.8,0-1.1,0c-0.1,0-0.1,0-0.2,0l-0.1,0h0l0,0l-0.1,0l-0.1,0c0,0,0,0,0,0c0,0-0.1,0-0.1-0.1
		c-0.3-0.1-0.4-0.3-0.6-0.6c-0.3-0.6-0.4-1.4-0.2-2.1c0,0,0,0,0-0.1l0-0.1l0-0.1l0-0.1c0.5-1.1,1.8-1.7,2.9-1.8l0.1,0l0.1,0l0,0
		c0,0,0,0,0,0l0,0l0,0l0.1,0l0.1,0c0.7,0,1.3,0.2,1.9,0.5c0.6,0.4,1,0.8,1.4,1.4C496.6,486.7,496.3,487.1,496,487.5
		C495.6,487.9,496.3,487.1,496,487.5z"/>
</g>
</svg>
